<?xml version="1.0" encoding="utf-8"?>
<!-- Generator: Adobe Illustrator 24.2.1, SVG Export Plug-In . SVG Version: 6.00 Build 0)  -->
<svg version="1.1" xmlns="http://www.w3.org/2000/svg" xmlns:xlink="http://www.w3.org/1999/xlink" x="0px" y="0px"
	 viewBox="0 0 384 385" style="enable-background:new 0 0 384 385;" xml:space="preserve">
<style type="text/css">
	.st0{fill:#FF766E;}
</style>
<g id="Ebene_1">
	<g>
		<g>
			<path class="st0" d="M296.2,174.1l-2.3-1.9l2.7-1.4c20.3-10.8,32.9-31.7,32.9-54.5c0-34.1-27.7-61.8-61.8-61.8
				c-19.9,0-38.6,9.6-50.2,25.8l-1.1,1.5l-1.6-1c-16-9.9-34.6-15.1-53.7-15.1c-25.7,0-50.3,9.6-69.4,26.9
				c-18.9,17.2-30.7,40.6-33.2,65.9l-0.2,1.5l-1.5,0.2c-15.2,2.5-29.1,10.3-39.2,22C7.6,194.2,2,209.3,2,225
				c0,30.3,20.6,56.5,50,63.7l2.3,0.6l-5.4,13.1c-1.9,4.7,0.3,10.1,5,12.1c4.7,2,10.1-0.3,12.1-5l7.7-18.7h42.5l-4.8,11.8
				c-1.9,4.7,0.3,10.1,5,12.1c4.7,1.9,10.1-0.3,12.1-5l7.7-18.7h42.5l-4.8,11.8c-1,2.3-0.9,4.8,0,7.1s2.7,4.1,5,5
				c2.3,0.9,4.8,0.9,7,0c2.3-1,4.1-2.7,5-5l7.7-18.7h42.5l-4.8,11.8c-1.9,4.7,0.3,10.1,5,12.1c4.7,1.9,10.1-0.3,12.1-5l7.8-19
				l1.2-0.1c33.1-3.7,58-31.7,58-65.1C320.5,205.4,311.7,186.7,296.2,174.1z M232.2,91.6c8.1-11.6,21.4-18.6,35.6-18.6
				c23.8,0,43.2,19.4,43.2,43.2c0,23.8-19.4,43.2-43.2,43.2c-0.8,0-1.5,0-2.4-0.1l-1.5-0.2l-0.2-1.5c-2.6-24.1-13.7-46.6-31.3-63.4
				l-1.2-1.2L232.2,91.6z M255,272H67.5c-25.9,0-47-21.1-47-47c0-21.8,14.9-40.6,36.1-45.7l2.2-0.5l0.3,2.2
				c1.2,9.9,3.8,19.7,7.8,28.9c1.4,3.4,4.8,5.6,8.5,5.6c1.2,0,2.5-0.3,3.8-0.8c4.6-2,6.8-7.5,4.7-12.1c-4.7-10.6-7.1-22-7.1-33.8
				c0.6-46.6,38.5-84.5,84.4-84.5c42.5,0,78.6,31.8,83.9,74.1l0.2,1.9l-1.9,0.3c-13.2,2.3-25.2,8.6-34.8,18.2
				c-1.7,1.7-2.7,4.1-2.7,6.5c0,2.5,1,4.8,2.7,6.5c1.8,1.8,4.1,2.7,6.6,2.7s4.8-1,6.6-2.7c8.9-8.9,20.7-13.8,33.2-13.8
				c25.9,0,47,21.1,47,47S280.9,272,255,272z M168.5,339.6c-1.1-0.5-2.3-0.7-3.5-0.7c-3.6,0-7.1,2.2-8.6,5.7l-10,24.5
				c-1.9,4.7,0.3,10.1,5,12.1c4.7,1.9,10.1-0.3,12.1-5l10-24.5c1-2.3,1-4.8,0-7.1C172.6,342.4,170.8,340.6,168.5,339.6z M231,339.6
				c-1.1-0.5-2.3-0.7-3.5-0.7c-3.6,0-7.1,2.2-8.6,5.7l-10,24.5c-1.9,4.7,0.3,10.1,5,12.1c4.7,1.9,10.1-0.3,12.1-5l10-24.5
				c1-2.3,1-4.8,0-7.1C235.1,342.4,233.3,340.6,231,339.6z M106,339.6c-1.1-0.5-2.3-0.7-3.5-0.7c-3.6,0-7.1,2.2-8.6,5.7l-10,24.5
				c-1.9,4.7,0.3,10.1,5,12.1c2.3,0.9,4.8,0.9,7,0c2.3-1,4.1-2.7,5-5l10-24.5c1-2.3,1-4.8,0-7.1C110.1,342.4,108.3,340.6,106,339.6z
				 M197.6,59.2c1.8,1.8,4.1,2.7,6.5,2.7c2.5,0,4.8-1,6.5-2.7s2.7-4.1,2.7-6.5c0-2.5-1-4.8-2.7-6.5l-10.6-10.6
				c-1.8-1.8-4.2-2.7-6.5-2.7c-2.4,0-4.7,0.9-6.5,2.7c-3.6,3.6-3.6,9.5,0,13.1L197.6,59.2z M337.9,173.3c-1.8-1.8-4.1-2.7-6.5-2.7
				c-2.5,0-4.8,1-6.5,2.7c-1.8,1.8-2.7,4.1-2.7,6.5c0,2.5,1,4.8,2.7,6.5l10.6,10.6c3.6,3.6,9.5,3.6,13.1,0s3.6-9.5,0-13.1
				L337.9,173.3z M267.8,35.5c5.1,0,9.2-4.1,9.2-9.2v-15c0-5.2-4-9.3-9.2-9.3c-5.1,0-9.2,4.1-9.2,9.2v15c0,2.5,0.9,4.8,2.6,6.6
				C262.9,34.5,265.3,35.5,267.8,35.5z M43.5,339.6c-1.1-0.5-2.3-0.7-3.5-0.7c-3.6,0-7.1,2.2-8.6,5.7l-10,24.5
				c-1.9,4.7,0.3,10.1,5,12.1c4.7,1.9,10.1-0.3,12.1-5l10-24.5c1-2.3,1-4.8,0-7.1C47.6,342.4,45.8,340.6,43.5,339.6z M372.8,107h-15
				c-5.1,0-9.2,4.1-9.2,9.2c0,5.1,4.1,9.2,9.2,9.2h15c5.1,0,9.2-4.1,9.2-9.2C382,111.1,377.9,107,372.8,107z M331.4,61.9
				c2.5,0,4.8-1,6.5-2.7l10.6-10.6c3.6-3.6,3.6-9.5,0-13.1c-1.8-1.8-4.2-2.7-6.5-2.7s-4.7,0.9-6.5,2.7l-10.6,10.6
				c-1.7,1.7-2.7,4-2.7,6.4c0,2.5,0.9,4.9,2.7,6.6C326.6,60.9,328.9,61.9,331.4,61.9z"/>
		</g>
	</g>
</g>
<g id="Ebene_2">
</g>
</svg>
