<?xml version="1.0" encoding="utf-8"?>
<!-- Generator: Adobe Illustrator 24.2.1, SVG Export Plug-In . SVG Version: 6.00 Build 0)  -->
<svg version="1.1" id="Capa_1" xmlns="http://www.w3.org/2000/svg" xmlns:xlink="http://www.w3.org/1999/xlink" x="0px" y="0px"
	 viewBox="0 0 512 512" style="enable-background:new 0 0 512 512;" xml:space="preserve">
<style type="text/css">
	.st0{fill:#D63F37;}
</style>
<path class="st0" d="M15,20.4c-8.3,0-15,6.7-15,15s6.7,15,15,15c47,0,85.2,37.7,85.2,84l-0.3,159.3c0,103.8,84.3,188.2,187.9,188.2
	h137.5c26.5,0,38.2,2.6,63.9,8.3l4.7,1c1.1,0.2,2.2,0.4,3.3,0.4c3.4,0,6.7-1.1,9.4-3.3c3.5-2.8,5.6-7.2,5.6-11.7v-77.7
	c0-4.6-2.1-8.9-5.6-11.7c-3.5-2.8-8.2-3.9-12.6-2.9l-4.7,1c-17.3,3.9-28.2,6.3-41.7,7.5c17.9-28.8,28.2-62.8,28.2-99.1
	c0-103.8-84.3-188.2-187.9-188.2c-32.4,0-62.9,8.3-89.6,22.8c3.2-43.5,40-77.9,84.9-77.9c8.3,0,15-6.7,15-15s-6.7-15-15-15L15,20.4
	L15,20.4z M199.3,278.7c7.1-42.4,44.1-74.9,88.4-74.9s81.3,32.4,88.4,74.9c1.5,19.1,0,30,0,30c-7.1,42.4-44.1,74.9-88.4,74.9
	s-81.3-32.4-88.4-74.9C196.4,300.3,199.3,278.7,199.3,278.7z M425.2,451.9h-35.8c12.4-8.1,23.9-17.5,34.1-28.2h1.7
	c24.3,0,38.3-2.1,56.8-6.1V458C463.5,454,449.5,451.9,425.2,451.9L425.2,451.9z M130.2,134.4c0-33.2-14.4-63.1-37.4-84h112.5
	c-23,20.8-37.4,50.8-37.4,84l0.1,159.3l0,0c0,66.1,53.7,119.9,119.7,119.9s119.7-53.8,119.7-119.9s-53.7-119.9-119.7-119.9
	c-35.7,0-67.8,15.7-89.7,40.6v-50.8c25.5-17.7,56.5-28.1,89.8-28.1c87.1,0,157.9,71,157.9,158.2s-70.8,158.2-157.9,158.2
	c-84.5,0-153.6-66.8-157.7-150.4L130.2,134.4L130.2,134.4z"/>
</svg>
