<?xml version="1.0" encoding="utf-8"?>
<!-- Generator: Adobe Illustrator 24.2.1, SVG Export Plug-In . SVG Version: 6.00 Build 0)  -->
<svg version="1.1" xmlns="http://www.w3.org/2000/svg" xmlns:xlink="http://www.w3.org/1999/xlink" x="0px" y="0px"
	 viewBox="0 0 377 76" style="enable-background:new 0 0 377 76;" xml:space="preserve">
<style type="text/css">
	.st0{display:none;}
</style>
<g id="Ebene_2" class="st0">
	
		<image style="display:inline;overflow:visible;opacity:0.5;" width="742" height="160" xlink:href="../../../../../../../../Desktop/Bildschirmfoto 2021-01-10 um 16.23.31.png"  transform="matrix(0.5347 0 0 0.5347 -5.8575 -2.1635)">
	</image>
</g>
<g id="Ebene_1">
	<g>
		<path d="M100.6,12.5l15.1-0.6c5.1,0,8.8,1.2,11.1,3.7c2.3,2.4,3.4,6.3,3.4,11.6c0.1,5.1-1.7,10-4.9,13.9c-3.3,4-7.8,6.8-12.9,8.1
			l-1.7-0.4c-1.9-0.6-3.8-0.9-5.7-1c-1,0-2,0.1-3,0.2l-0.3-0.7c0.9-1.3,1.5-2.8,1.5-4.3c0.6-5.8,1-11.6,1-17.4
			c0.1-3.7-0.1-7.4-0.4-11.1c-1.1-0.2-2.1-0.5-3.1-0.9L100.6,12.5z M112.5,43.8c0.9,0.4,1.9,0.6,2.9,0.5c1.2,0.1,2.5-0.4,3.4-1.2
			c0.9-2,1.4-4,1.7-6.1c0.4-2.1,0.6-4.2,0.6-6.3c0-1.7,0-2.8,0-3.5c0-0.6-0.1-1.6-0.1-2.8c0-1-0.1-1.9-0.3-2.9
			c-0.2-0.8-0.4-1.7-0.6-2.5c-0.2-0.8-0.6-1.5-1-2.1c-0.4-0.5-1-1-1.6-1.3c-0.7-0.4-1.4-0.6-2.2-0.5c-0.7,0-1.4,0.1-2,0.3
			c-0.7,6.9-1,14.3-1,22.3C112.2,39.9,112.3,41.9,112.5,43.8z M141.5,34.1v2.6c0,1.4,0.2,2.7,0.5,4c0.1,1.3,1,2.3,2.2,2.7
			c1.2-0.8,2.3-1.9,3.2-3c1-1.2,1.8-2.5,2.4-3.8L151,37c-0.8,2.4-1.9,4.7-3.4,6.7c-1.4,2.1-3.1,3.9-5.1,5.4
			c-2.7,0.2-5.3-0.9-7.1-2.9c-1.7-2.1-2.6-4.7-2.5-7.4c0-3,0.8-6,2.2-8.6c1.5-2.7,3.5-5,6-6.8c2.3-1.7,5.1-2.8,7.9-3l0.8,0.4
			c0.1,0.6,0.2,1.6,0.3,3.2c0.2,2.4,0.6,4.7,1.2,7c0.7,0.1,1.5,0.4,2.1,0.7v0.9C149.4,32.6,145.4,33.1,141.5,34.1z M144.4,31.6v-7.8
			c-0.9,0.1-1.6,1.2-2.1,3.2c-0.5,1.8-0.7,3.6-0.8,5.4C142.4,32.1,143.4,31.8,144.4,31.6z M169.5,26.6c-1.6,2.5-2.7,5.3-3.4,8.2
			c-0.8,2.7-1.4,5.5-1.5,8.4c0,1.7,0.1,3.4,0.4,5.1c-3,0-6,0.3-9,0.8l-0.3-0.3c0.7-2.5,1.1-6.8,1.1-12.9c0.1-4.2-0.1-8.5-0.5-12.7
			c-1.1-0.2-2.3-0.5-3.4-0.9v-1c4.2,0.1,8.5-0.2,12.6-0.8l0.4,0.7c-1,2.8-1.4,5.7-1.3,8.7c-0.2,1.2-0.6,2.7-1,4.4l0.9,0.1
			c0.6-2.8,1.5-5.6,2.8-8.2c1-2.3,2.6-4.3,4.6-5.7c1.6,0.7,3.2,1,4.9,1l0.3,0.8c-1,1.4-1.6,2.9-2,4.5c-0.5,1.8-0.8,3.6-1,5.4h-1
			c-0.2-0.7-0.4-1.6-0.6-2.7C171.8,28.4,170.7,27.3,169.5,26.6L169.5,26.6z M186.5,12.5l16.1-0.6c5.8,0,9.4,1.4,10.8,4.1
			c0.6,1.3,0.9,2.7,0.9,4.1c0.1,3.4-1.6,6.7-4.5,8.5c-3.2,2-7,3.1-10.8,3l0.2-2c3.9,0,5.8-2.6,5.8-7.8c0-4.4-1.2-6.6-3.7-6.6
			c-0.8,0-1.6,0.1-2.4,0.3c-0.9,7.5-1.2,15.1-1.1,22.7c-0.1,3.4,0.2,6.8,0.8,10.2c-3.4,0-6.9,0.3-10.3,0.8l-0.3-0.3
			c0.7-3.6,1.2-7.3,1.3-11c0.4-5.2,0.6-9.8,0.6-14s-0.1-7.3-0.3-9.5c-1.1-0.2-2.1-0.5-3.1-0.9L186.5,12.5z M224.8,25.2
			c-0.3-0.4-0.8-0.7-1.3-0.7c-0.5,0-1,0.1-1.5,0.3c-1,4.2-1.4,8.5-1.4,12.8c0,3.7,0.4,6,1.1,6.8c0.3,0.4,0.7,0.6,1.2,0.6
			c0.5,0,1-0.1,1.4-0.3c1-3.9,1.5-7.9,1.4-11.9C225.8,28.6,225.5,26.1,224.8,25.2z M222,49.1c-2.7,0.2-5.4-0.9-7.2-2.9
			c-1.7-1.9-2.6-4.6-2.6-8.1c0.1-3.7,1.3-7.2,3.5-10.1c2.3-3.2,5.3-5.8,8.8-7.5c3.3,0,5.8,0.9,7.4,2.8c1.6,1.9,2.4,4.6,2.4,8.1
			c-0.1,3.7-1.3,7.3-3.6,10.3C228.6,44.9,225.5,47.4,222,49.1z M242.3,37.4c-0.2,0.6-0.2,1.3-0.2,2c0.1,1.1,0.5,2.2,1.2,3.1
			c0.6,1.1,1.6,2,2.7,2.6c0.8-0.7,1.4-1.5,1.9-2.4c0.5-0.8,0.8-1.7,0.8-2.7c0-1-1.9-2.3-5.6-4.2c-1.4-0.7-2.7-1.6-3.8-2.6
			c-1-0.8-1.6-1.9-1.7-3.2c0-1.1,0.7-2.3,2.1-3.7c2.6-2.6,5.7-4.5,9.1-5.8c1.5,0.5,3,0.8,4.6,0.8c0.9,0.1,1.9-0.1,2.7-0.5l0.6,0.6
			c-1.6,1.8-2.8,4-3.6,6.3l-0.6,0.2l-1.4-1c-0.8-0.6-1.6-1.1-2.5-1.6c-0.8-0.5-1.6-0.8-2.5-1c-0.8,0.4-1.4,1.3-1.4,2.3
			c0,1,1.7,2.3,5.2,3.9c1.3,0.6,2.5,1.4,3.6,2.4c0.9,0.7,1.5,1.8,1.6,2.9c0,2.2-1.1,4.6-3.2,7.1c-2.1,2.4-4.5,4.5-7.1,6.3
			c-1.7-0.2-3.4-0.7-4.9-1.6c-1.4-0.7-2.7-1.7-3.7-3l-0.5-0.7c2.3-2,4.3-4.3,5.9-6.9L242.3,37.4z M269.4,24.5
			c-0.2,1-0.4,2.9-0.8,5.8c-0.3,2.7-0.5,5.3-0.5,8c0,2.4,0,4.1,0.1,5.2c1.1-1.1,2-2.3,2.6-3.7c0.8-1.5,1.5-3,2-4.6l0.9,0.2
			c-0.4,2.8-1.3,5.6-2.5,8.1c-1,2.3-2.6,4.2-4.7,5.6c-2.3,0-4-0.5-5-1.6c-1-1.1-1.5-2.8-1.5-5.3c0-1.3,0.1-3.8,0.4-7.4
			c0.3-3.6,0.4-6,0.4-7.2c0-1.2,0-2.4-0.1-3.6l-2.3-0.2l-0.2-1c1.8-0.8,3.5-1.8,5.1-3c1.5-1.1,2.7-2.4,3.7-4c1-0.2,1.9-0.4,2.9-0.8
			l0.5,0.3c-0.3,1.9-0.5,3.8-0.5,5.7c1.3-0.2,2.6-0.5,3.9-0.9l0.3,0.4c-0.5,1.4-0.8,2.9-1,4.3C271.2,24.7,270.1,24.6,269.4,24.5z
			 M274.9,21.3c4.3,0.1,8.6-0.2,12.9-0.8l0.4,0.7c-0.9,2.6-1.5,5.3-1.7,8c-0.4,3.1-0.6,6.2-0.7,9.3c0,2.4,0,4.1,0.1,5
			c1.3-1.6,2.6-4.6,3.9-8.9l0.9,0.2c-1.3,7.4-3.5,12.2-6.5,14.2c-2.3,0-4-0.5-5-1.6c-1-1.1-1.5-2.8-1.5-5.3c0-1,0.1-3.3,0.4-7.1
			s0.4-6.5,0.4-8.1c0-1.3,0-2.6-0.2-3.8c-1.1-0.2-2.3-0.5-3.4-0.9L274.9,21.3z M288,12.8c-0.7,1.1-1.6,2.1-2.4,3
			c-0.8,1-1.8,1.8-2.8,2.6c-1.8-1.5-3.2-3.4-4.1-5.6c0.6-0.9,1.3-1.8,2.2-2.5c0.9-0.8,1.9-1.5,2.9-2C285.5,9.5,286.9,11,288,12.8
			L288,12.8z M302,41.8v1.7c1.3-1.6,2.6-4.6,3.9-8.9l0.9,0.2c-1.3,7.4-3.5,12.2-6.5,14.2c-2.3,0-4-0.5-5-1.6c-1.1-1.3-1.6-3-1.5-4.7
			c0-2,0.2-5.4,0.6-10.2c0.4-4.8,0.6-8.2,0.6-10.4c0-2.7-0.3-5.4-0.7-8.1c-1.1-0.2-2.2-0.5-3.3-0.9v-1c2.5,0,5-0.2,7.5-0.7
			c2.4-0.4,4.8-1,7.1-1.9l0.4,0.7c-1.5,2.4-2.6,7-3.1,13.6C302.3,30.6,302,36.6,302,41.8L302,41.8z M318.1,41.8v1.7
			c1.3-1.6,2.6-4.6,3.9-8.9l0.9,0.2c-1.3,7.4-3.5,12.2-6.5,14.2c-2.3,0-4-0.5-5-1.6c-1.1-1.3-1.6-3-1.5-4.7c0-2,0.2-5.4,0.6-10.2
			c0.4-4.8,0.6-8.2,0.6-10.4c0-2.7-0.3-5.4-0.7-8.1c-1.1-0.2-2.2-0.5-3.3-0.9v-1c2.5,0,5-0.2,7.5-0.7c2.4-0.4,4.8-1,7.1-1.9l0.4,0.7
			c-1.5,2.4-2.6,7-3.1,13.6C318.3,30.6,318.1,36.6,318.1,41.8L318.1,41.8z M336.8,25.2c-0.3-0.4-0.8-0.7-1.3-0.7
			c-0.5,0-1,0.1-1.5,0.3c-1,4.2-1.4,8.5-1.4,12.8c0,3.7,0.4,6,1.1,6.8c0.3,0.4,0.7,0.6,1.2,0.6c0.5,0,1-0.1,1.4-0.3
			c1-3.9,1.5-7.9,1.4-11.9C337.9,28.6,337.5,26.1,336.8,25.2z M334,49.1c-2.7,0.2-5.4-0.9-7.2-2.9c-1.7-1.9-2.6-4.6-2.6-8.1
			c0.1-3.7,1.3-7.2,3.5-10.1c2.3-3.2,5.3-5.8,8.8-7.5c3.3,0,5.8,0.9,7.4,2.8c1.6,1.9,2.4,4.6,2.4,8.1c-0.1,3.7-1.3,7.3-3.6,10.3
			C340.6,44.9,337.6,47.4,334,49.1L334,49.1z M373.6,27c-0.1,2.8-0.4,5.6-1,8.4c-0.6,2.8-0.9,5.6-1,8.4c1.8-2,3.3-5,4.6-9.1l0.9,0.2
			c-1.3,7.1-3.8,11.9-7.4,14.2c-4,0-6-1.7-6-5c0.1-2.4,0.4-4.8,0.9-7.2c0.5-2.5,0.8-5.1,0.9-7.7c0-1.7-0.2-2.7-0.5-3
			c-1.4,1.5-2.6,4.2-3.7,8.2c-0.9,2.8-1.5,5.8-1.6,8.8c0,1.7,0.1,3.4,0.4,5.1c-3,0-6,0.3-9,0.8l-0.3-0.3c0.7-2.5,1.1-6.8,1.1-12.9
			c0.1-4.2-0.1-8.5-0.5-12.7c-1.1-0.2-2.3-0.5-3.4-0.9v-1c4.2,0.1,8.5-0.2,12.7-0.8l0.4,0.7c-1,2.8-1.4,5.7-1.3,8.7
			c-0.2,1.2-0.5,2.7-1,4.4l0.9,0.1c1.6-7.2,4.2-11.8,8-13.9C371.5,20.5,373.6,22.7,373.6,27z M101.5,62.9v3.5h3.8v1.1h-3.8v3.6h4.3
			v1.1h-5.6V61.8h5.6v1.1H101.5z M111.9,63.9c0.6,0,1.2,0.1,1.7,0.4c0.5,0.3,0.9,0.7,1.2,1.2c0.3,0.6,0.4,1.3,0.4,1.9v4.8h-1.3v-4.7
			c0-0.7-0.2-1.4-0.6-1.9c-0.4-0.4-1.1-0.7-1.7-0.7c-0.6,0-1.3,0.2-1.7,0.7c-0.5,0.5-0.7,1.3-0.6,2v4.5h-1.4V61.2h1.4v4.1
			c0.3-0.4,0.7-0.8,1.1-1C110.8,64,111.4,63.9,111.9,63.9z M118.8,65.4c0.2-0.5,0.6-0.8,1-1.1c0.5-0.3,1.1-0.4,1.6-0.4v1.4h-0.4
			c-1.5,0-2.3,0.8-2.3,2.5v4.5h-1.4v-8.2h1.4V65.4z M124.4,61.2v11.1H123V61.2H124.4z M127.4,62.7c-0.5,0-0.9-0.4-0.9-0.9
			s0.4-0.9,0.9-0.9c0.2,0,0.5,0.1,0.6,0.3c0.3,0.4,0.3,0.9,0,1.3C127.9,62.6,127.7,62.7,127.4,62.7z M128.1,64.1v8.2h-1.4v-8.2
			H128.1z M129.9,68.2c0-0.8,0.2-1.5,0.5-2.2c0.3-0.6,0.8-1.1,1.4-1.5c1.4-0.8,3.2-0.7,4.6,0.2c0.7,0.5,1.1,1.2,1.3,2h-1.5
			c-0.1-0.5-0.4-0.9-0.8-1.2c-0.4-0.3-1-0.5-1.5-0.4c-0.7,0-1.4,0.3-1.9,0.8c-0.5,0.6-0.8,1.5-0.7,2.3c-0.1,0.8,0.2,1.6,0.7,2.3
			c0.5,0.5,1.2,0.8,1.9,0.8c0.5,0,1.1-0.1,1.5-0.4c0.4-0.3,0.7-0.7,0.8-1.2h1.5c-0.2,0.8-0.7,1.5-1.3,2c-0.7,0.5-1.6,0.8-2.5,0.8
			c-0.7,0-1.4-0.2-2.1-0.5c-0.6-0.3-1.1-0.9-1.4-1.5C130.1,69.7,129.9,68.9,129.9,68.2L129.9,68.2z M143.6,63.9
			c0.6,0,1.2,0.1,1.7,0.4c0.5,0.3,0.9,0.7,1.2,1.2c0.3,0.6,0.4,1.3,0.4,1.9v4.8h-1.4v-4.7c0-0.7-0.2-1.4-0.6-1.9
			c-0.4-0.4-1.1-0.7-1.7-0.7c-0.6,0-1.3,0.2-1.7,0.7c-0.5,0.5-0.7,1.3-0.6,2v4.5h-1.4V61.2h1.4v4.1c0.3-0.4,0.7-0.8,1.1-1
			C142.5,64,143.1,63.9,143.6,63.9z M156.6,67.8c0,0.3,0,0.6,0,0.8H150c0,1.4,1.2,2.6,2.6,2.6c0,0,0.1,0,0.1,0c0.5,0,1-0.1,1.5-0.4
			c0.4-0.3,0.7-0.7,0.8-1.1h1.5c-0.2,0.8-0.7,1.5-1.3,1.9c-0.7,0.5-1.6,0.8-2.5,0.7c-0.7,0-1.5-0.2-2.1-0.5
			c-0.6-0.3-1.1-0.9-1.4-1.5c-0.4-0.7-0.5-1.5-0.5-2.2c0-0.8,0.2-1.5,0.5-2.2c0.3-0.6,0.8-1.1,1.4-1.5c0.7-0.4,1.4-0.5,2.1-0.5
			c0.7,0,1.4,0.2,2.1,0.5c0.6,0.3,1.1,0.8,1.4,1.4C156.5,66.5,156.6,67.1,156.6,67.8z M155.2,67.6c0-0.5-0.1-0.9-0.3-1.3
			c-0.2-0.4-0.5-0.7-0.9-0.9c-0.4-0.2-0.9-0.3-1.3-0.3c-0.7,0-1.3,0.2-1.8,0.7c-0.5,0.5-0.8,1.1-0.8,1.8L155.2,67.6z M170.7,72.3
			h-1.4l-5.5-8.3v8.3h-1.4V61.8h1.4l5.5,8.3v-8.3h1.4V72.3z M172.5,68.1c0-0.8,0.2-1.5,0.5-2.2c0.3-0.6,0.8-1.1,1.4-1.5
			c0.6-0.4,1.3-0.5,2-0.5c0.7,0,1.3,0.1,1.9,0.5c0.5,0.3,0.9,0.7,1.2,1.2v-1.5h1.4v8.2h-1.4v-1.5c-0.3,0.5-0.7,0.9-1.2,1.2
			c-0.6,0.3-1.2,0.5-1.9,0.5c-0.7,0-1.4-0.2-2-0.5c-0.6-0.4-1.1-0.9-1.4-1.5C172.6,69.7,172.5,68.9,172.5,68.1z M179.4,68.1
			c0-0.6-0.1-1.1-0.4-1.6c-0.2-0.4-0.6-0.8-1-1.1c-0.9-0.5-1.9-0.5-2.8,0c-0.4,0.2-0.8,0.6-1,1.1c-0.3,0.5-0.4,1.1-0.4,1.6
			c0,0.6,0.1,1.1,0.4,1.6c0.2,0.4,0.6,0.8,1,1.1c0.4,0.2,0.9,0.4,1.4,0.4c0.5,0,1-0.1,1.4-0.4c0.4-0.3,0.8-0.6,1-1.1
			C179.3,69.3,179.4,68.7,179.4,68.1z M182.6,68.1c0-0.8,0.2-1.5,0.5-2.2c0.3-0.6,0.8-1.1,1.4-1.5c1.4-0.8,3.2-0.7,4.6,0.2
			c0.7,0.5,1.1,1.2,1.3,2h-1.5c-0.1-0.5-0.4-0.9-0.8-1.2c-0.4-0.3-1-0.5-1.5-0.4c-0.7,0-1.4,0.3-1.9,0.8c-0.5,0.6-0.8,1.5-0.7,2.3
			c-0.1,0.8,0.2,1.6,0.7,2.3c0.5,0.5,1.2,0.8,1.9,0.8c0.5,0,1.1-0.1,1.5-0.4c0.4-0.3,0.7-0.7,0.8-1.2h1.5c-0.2,0.8-0.7,1.5-1.3,2
			c-0.7,0.5-1.6,0.8-2.5,0.8c-0.7,0-1.4-0.2-2.1-0.5c-0.6-0.3-1.1-0.9-1.4-1.5C182.8,69.7,182.6,68.9,182.6,68.1z M196.3,63.9
			c0.6,0,1.2,0.1,1.7,0.4c0.5,0.3,0.9,0.7,1.2,1.2c0.3,0.6,0.4,1.3,0.4,1.9v4.8h-1.4v-4.7c0-0.7-0.2-1.4-0.6-1.9
			c-0.4-0.4-1.1-0.7-1.7-0.7c-0.6,0-1.3,0.2-1.7,0.7c-0.5,0.5-0.7,1.3-0.6,2v4.5h-1.4V61.2h1.4v4.1c0.3-0.4,0.7-0.8,1.1-1
			C195.2,64,195.8,63.9,196.3,63.9L196.3,63.9z M203.2,65.4c0.2-0.5,0.6-0.8,1-1.1c0.5-0.3,1.1-0.4,1.6-0.4v1.4h-0.4
			c-1.5,0-2.3,0.8-2.3,2.5v4.5h-1.4v-8.2h1.4L203.2,65.4z M208.1,62.7c-0.5,0-0.9-0.4-0.9-0.9s0.4-0.9,0.9-0.9
			c0.2,0,0.5,0.1,0.6,0.3c0.3,0.4,0.3,0.9,0,1.3C208.6,62.6,208.4,62.7,208.1,62.7L208.1,62.7z M208.8,64.1v8.2h-1.4v-8.2H208.8z
			 M210.6,68.2c0-0.8,0.2-1.5,0.5-2.2c0.3-0.6,0.8-1.1,1.4-1.5c1.4-0.8,3.2-0.7,4.6,0.2c0.7,0.5,1.1,1.2,1.3,2h-1.5
			c-0.1-0.5-0.4-0.9-0.8-1.2c-0.4-0.3-1-0.5-1.5-0.4c-0.7,0-1.4,0.3-1.9,0.8c-0.5,0.6-0.8,1.5-0.7,2.3c-0.1,0.8,0.2,1.6,0.7,2.3
			c0.5,0.5,1.2,0.8,1.9,0.8c0.5,0,1.1-0.1,1.5-0.4c0.4-0.3,0.7-0.7,0.8-1.2h1.5c-0.2,0.8-0.7,1.5-1.3,2c-0.7,0.5-1.6,0.8-2.5,0.8
			c-0.7,0-1.4-0.2-2.1-0.5c-0.6-0.3-1.1-0.9-1.4-1.5C210.8,69.7,210.6,68.9,210.6,68.2L210.6,68.2z M224.3,63.9
			c0.6,0,1.2,0.1,1.7,0.4c0.5,0.3,0.9,0.7,1.2,1.2c0.3,0.6,0.4,1.3,0.4,1.9v4.8h-1.4v-4.7c0-0.7-0.2-1.4-0.6-1.9
			c-0.4-0.4-1.1-0.7-1.7-0.7c-0.6,0-1.3,0.2-1.7,0.7c-0.5,0.5-0.7,1.3-0.6,2v4.5h-1.4V61.2h1.4v4.1c0.3-0.4,0.7-0.8,1.1-1
			C223.2,64,223.7,63.9,224.3,63.9L224.3,63.9z M231.5,65.2V70c0,0.3,0.1,0.6,0.3,0.8c0.3,0.2,0.6,0.3,0.9,0.2h1v1.2h-1.2
			c-0.6,0-1.2-0.1-1.7-0.5c-0.4-0.5-0.6-1.1-0.6-1.7v-4.8h-1.1v-1.1h1.1V62h1.4v2.1h2.1v1.1H231.5z M242.8,67.8c0,0.3,0,0.6,0,0.8
			h-6.6c0,1.4,1.2,2.6,2.6,2.6c0,0,0.1,0,0.1,0c0.5,0,1-0.1,1.5-0.4c0.4-0.3,0.7-0.7,0.8-1.1h1.5c-0.2,0.8-0.7,1.5-1.3,1.9
			c-0.7,0.5-1.6,0.8-2.5,0.7c-0.7,0-1.5-0.2-2.1-0.5c-0.6-0.3-1.1-0.9-1.4-1.5c-0.4-0.7-0.5-1.5-0.5-2.2c0-0.8,0.2-1.5,0.5-2.2
			c0.3-0.6,0.8-1.1,1.4-1.5c0.7-0.4,1.4-0.5,2.1-0.5c0.7,0,1.4,0.2,2.1,0.5c0.6,0.3,1.1,0.8,1.4,1.4
			C242.6,66.4,242.8,67.1,242.8,67.8L242.8,67.8z M241.4,67.6c0-0.5-0.1-0.9-0.3-1.3c-0.2-0.4-0.5-0.7-0.9-0.9
			c-0.4-0.2-0.9-0.3-1.3-0.3c-0.7,0-1.3,0.2-1.8,0.7c-0.5,0.5-0.8,1.1-0.8,1.8L241.4,67.6z M248.6,63.9c0.9,0,1.8,0.3,2.4,0.9
			c0.7,0.7,1,1.7,0.9,2.6v4.8h-1.4v-4.7c0-0.7-0.2-1.4-0.6-1.9c-0.4-0.4-1.1-0.7-1.7-0.7c-0.6,0-1.3,0.2-1.7,0.7
			c-0.5,0.5-0.7,1.3-0.6,2v4.5h-1.4v-8.2h1.4v1.2c0.3-0.4,0.7-0.8,1.1-1C247.5,64,248.1,63.9,248.6,63.9L248.6,63.9z M255.6,70.4
			l-1.7,4H253l1.1-4H255.6z M264.1,72.4c-0.6,0-1.2-0.1-1.7-0.3c-0.5-0.2-0.9-0.5-1.2-0.9c-0.3-0.4-0.5-0.8-0.5-1.3h1.4
			c0,0.4,0.2,0.8,0.6,1c0.4,0.3,0.9,0.4,1.4,0.4c0.4,0,0.9-0.1,1.2-0.3c0.3-0.2,0.5-0.5,0.5-0.9c0-0.3-0.2-0.7-0.5-0.8
			c-0.5-0.2-1-0.4-1.5-0.5c-0.5-0.1-1-0.3-1.5-0.5c-0.4-0.2-0.7-0.4-1-0.7c-0.3-0.4-0.4-0.8-0.4-1.3c0-0.4,0.1-0.8,0.4-1.2
			c0.3-0.4,0.6-0.7,1.1-0.8c0.5-0.2,1-0.3,1.6-0.3c0.8,0,1.6,0.2,2.2,0.7c0.6,0.5,0.9,1.2,0.9,1.9h-1.4c0-0.4-0.2-0.8-0.5-1
			c-0.4-0.3-0.8-0.4-1.3-0.4c-0.4,0-0.8,0.1-1.2,0.3c-0.3,0.2-0.4,0.5-0.4,0.8c0,0.2,0.1,0.5,0.3,0.7c0.2,0.2,0.4,0.3,0.7,0.4
			c0.4,0.1,0.7,0.3,1.1,0.4c0.5,0.1,1,0.3,1.4,0.5c0.4,0.2,0.7,0.4,1,0.7c0.3,0.3,0.4,0.8,0.4,1.2c0,0.4-0.1,0.9-0.4,1.2
			c-0.3,0.4-0.6,0.7-1.1,0.8C265.1,72.3,264.6,72.4,264.1,72.4L264.1,72.4z M276.5,67.8c0,0.3,0,0.6,0,0.8h-6.6
			c0,1.4,1.2,2.6,2.6,2.6c0,0,0.1,0,0.1,0c0.5,0,1-0.1,1.5-0.4c0.4-0.3,0.7-0.7,0.8-1.1h1.5c-0.2,0.8-0.7,1.5-1.3,1.9
			c-0.7,0.5-1.6,0.8-2.5,0.7c-0.7,0-1.5-0.2-2.1-0.5c-0.6-0.3-1.1-0.9-1.4-1.5c-0.4-0.7-0.5-1.5-0.5-2.2c0-0.8,0.2-1.5,0.5-2.2
			c0.3-0.6,0.8-1.1,1.4-1.5c0.7-0.4,1.4-0.5,2.1-0.5c0.7,0,1.4,0.2,2.1,0.5c0.6,0.3,1.1,0.8,1.4,1.4
			C276.3,66.4,276.5,67.1,276.5,67.8L276.5,67.8z M275.1,67.6c0-0.5-0.1-0.9-0.3-1.3c-0.2-0.4-0.5-0.7-0.9-0.9
			c-0.4-0.2-0.9-0.3-1.3-0.3c-0.7,0-1.3,0.2-1.8,0.7c-0.5,0.5-0.8,1.1-0.8,1.8L275.1,67.6z M279,62.7c-0.5,0-0.9-0.4-0.9-0.9
			s0.4-0.9,0.9-0.9c0.2,0,0.5,0.1,0.6,0.3c0.3,0.4,0.3,0.9,0,1.3C279.5,62.6,279.2,62.7,279,62.7L279,62.7z M279.6,64v8.2h-1.4v-8.2
			L279.6,64z M283.6,65.2V70c0,0.3,0.1,0.6,0.3,0.8c0.3,0.2,0.6,0.3,0.9,0.2h1v1.2h-1.2c-0.6,0-1.2-0.1-1.7-0.5
			c-0.4-0.5-0.6-1.1-0.6-1.7v-4.8h-1.1v-1.1h1.1V62h1.4v2.1h2.1v1.1L283.6,65.2z M290.9,62.7v-1.2h2.8v10.8h-1.4v-9.6L290.9,62.7z
			 M298,66.6c-0.5-0.2-1-0.5-1.3-1c-0.3-0.4-0.5-1-0.4-1.5c0-0.5,0.1-1,0.4-1.5c0.3-0.5,0.7-0.8,1.2-1c1.2-0.5,2.6-0.5,3.9,0
			c0.5,0.2,0.9,0.6,1.2,1c0.3,0.4,0.4,0.9,0.4,1.5c0,0.5-0.2,1.1-0.5,1.5c-0.3,0.4-0.8,0.8-1.3,1c0.6,0.2,1.1,0.5,1.5,1
			c0.4,0.5,0.6,1.1,0.5,1.7c0,0.6-0.2,1.2-0.5,1.7c-0.3,0.5-0.8,0.9-1.4,1.1c-0.6,0.3-1.3,0.4-2,0.4c-0.7,0-1.4-0.1-2-0.4
			c-0.5-0.2-1-0.6-1.3-1.1c-0.3-0.5-0.5-1.1-0.5-1.7c0-0.6,0.2-1.2,0.5-1.7C296.9,67.1,297.4,66.8,298,66.6L298,66.6z M302.1,64.3
			c0-0.5-0.2-1.1-0.6-1.4c-1-0.7-2.3-0.7-3.3,0c-0.4,0.4-0.6,0.9-0.6,1.4c0,0.5,0.2,1,0.6,1.3c1,0.7,2.3,0.7,3.2,0
			C301.8,65.3,302.1,64.8,302.1,64.3z M299.8,67.2c-0.6,0-1.3,0.2-1.8,0.5c-0.5,0.4-0.7,0.9-0.7,1.6c0,0.6,0.2,1.2,0.7,1.5
			c0.5,0.4,1.2,0.6,1.8,0.6c0.7,0,1.3-0.2,1.8-0.6c0.4-0.4,0.7-1,0.7-1.5c0-0.6-0.2-1.2-0.7-1.5C301.1,67.4,300.5,67.2,299.8,67.2z
			 M305.1,69.9v-1l5.3-7.3h1.6v7.1h1.5v1.2H312v2.4h-1.4v-2.4H305.1z M310.8,63l-4,5.7h4L310.8,63z M321.8,62.6h-5.3V66
			c0.3-0.3,0.6-0.6,1-0.8c0.5-0.2,1-0.3,1.5-0.3c0.7,0,1.4,0.1,2,0.5c0.5,0.3,0.9,0.8,1.1,1.3c0.5,1.2,0.4,2.5-0.1,3.7
			c-0.3,0.6-0.7,1-1.2,1.3c-0.6,0.3-1.3,0.5-2.1,0.5c-0.9,0-1.8-0.2-2.6-0.8c-0.7-0.5-1.1-1.3-1.2-2.2h1.3c0.1,0.5,0.4,1,0.8,1.3
			c0.5,0.3,1,0.5,1.6,0.5c0.7,0,1.3-0.2,1.8-0.7c0.4-0.5,0.6-1.2,0.6-1.9c0-0.7-0.2-1.3-0.6-1.8c-0.5-0.5-1.1-0.7-1.8-0.6
			c-0.5,0-1,0.1-1.4,0.4c-0.4,0.2-0.7,0.6-0.9,1h-1.3v-6.1h6.5V62.6z"/>
	</g>
	<g id="Capa_1_Kopie">
		<g>
			<path d="M67.8,0.3c-3.9-1.1-7.9,0.8-9.7,4.3c-3.4-0.6-6.9,0-9.9,1.7l-6.8,3.8c-0.8,0.5-1.8,0.2-2.3-0.6c-0.5-0.8-1.5-1.1-2.3-0.6
				c-0.8,0.4-1.1,1.5-0.6,2.3c1.1,2,3.4,2.9,5.5,2.4c-0.2,0.6-0.5,1.2-0.6,1.8l-0.9,3.1l-1.4,0.8c-0.8,0.5-1.8,0.2-2.3-0.6
				c-0.5-0.8-1.5-1.1-2.3-0.6c-0.8,0.4-1.1,1.5-0.6,2.3c1.1,1.9,3.3,2.9,5.4,2.4l-1.3,4.8c-1.1,0.1-2.3,0.3-3.4,0.5
				c-0.1-0.1-0.2-0.2-0.3-0.3c-0.5-0.8-1.5-1.1-2.3-0.6c-0.7,0.4-1,1.3-0.7,2.1c-2.7,1.1-5,2.8-6.9,4.8c-1.1-4.7,1.6-9.6,6.3-11.1
				c0.9-0.3,1.4-1.2,1.1-2.1s-1.2-1.4-2.1-1.1L1.2,28.7l0,0c-0.9,0.3-1.4,1.2-1.1,2.1c0.3,0.9,1.2,1.4,2.1,1.1
				c5-1.6,10.3,1.1,11.9,6l5.4,16.9c2.3,7,7.9,12.1,14.6,13.8l-1.6,5.4c-0.3,0.9,0.3,1.8,1.1,2.1c0.3,0.1,0.7,0.1,1,0
				c0.5-0.2,0.9-0.6,1.1-1.1l1.6-5.7c2.7,0.3,5.6,0,8.4-0.9l14.5-4.7c2.8-0.9,4.1-1,7-1.3l0.5-0.1c0.1,0,0.2,0,0.4-0.1
				c0.4-0.1,0.7-0.3,0.9-0.7c0.3-0.4,0.3-1,0.2-1.4l-2.6-8.2c-0.2-0.5-0.5-0.9-1-1c-0.5-0.2-1-0.1-1.4,0.1l-0.5,0.3
				c-1.7,1-2.8,1.6-4.2,2.2c0.9-3.7,0.9-7.6-0.4-11.4c-0.7-2.2-1.7-4.2-3-5.9l2.9-10.5l0.7,0.2l2.8,5c1.4,2.4,4.4,3.3,6.8,1.9
				l2.9-1.6c2.4-1.4,3.3-4.4,1.9-6.8L71.3,19c-0.1-0.2-0.2-0.5-0.2-0.7l-0.3-5.9c0-0.8-0.3-1.5-0.6-2.2l-2.3-4L69,2.3
				C69.2,1.5,68.7,0.6,67.8,0.3z M33.9,31.6C33.9,31.6,33.9,31.6,33.9,31.6c0.9,0.3,1.8,0.3,2.7,0.1c-0.1,0.8,0.4,1.5,1.2,1.7
				l5.8,1.6l0.1,0l-0.2,0.6c-2.6-0.9-5.5-1-8.3-0.1c-3.8,1.2-6.6,4-8.1,7.3l-1.7-5.4C27.5,34.9,30.4,32.7,33.9,31.6z M48.1,43.7
				c0,0,0.4,1.3,1,3.2c0.7,4.7-2.1,9.4-6.8,10.9c-0.6,0.2-1.3,0.3-1.9,0.4l5.1-17.7C46.6,41.4,47.5,42.5,48.1,43.7z M30.4,52.9
				l-1-3.2c-0.7-4.7,2.1-9.4,6.8-10.9c2.1-0.7,4.4-0.6,6.3,0.1L37,58C34.2,57.4,31.8,55.5,30.4,52.9z M44.6,65
				c-8.9,2.9-18.5-1.8-21.8-10.6l-5.7-17.7c-1.1-3.5-3.7-6.2-6.8-7.6l11.9-3.8c-1.7,3-2.2,6.6-1.1,10.2l5.4,16.8l0,0
				c2.2,7,9.7,10.9,16.7,8.6c7-2.2,10.8-9.8,8.6-16.7c-1-3-2.9-5.5-5.4-7.1l0.3-1.2l6.4,1.8c1.2,1.5,2.1,3.3,2.7,5.2
				C58.9,52.2,53.8,62.1,44.6,65z M64,54.8l1.4,4.3c-2.1,0.2-3.6,0.5-6.2,1.3l0,0l-3.8,1.2c1-1.3,1.9-2.7,2.6-4.1l0.2-0.1
				C60.8,56.6,62.2,55.9,64,54.8z M70.7,28.1l-2.9,1.6c-0.8,0.5-1.8,0.2-2.3-0.6l-0.8-1.5l5.8-3.3l0.8,1.5
				C71.7,26.6,71.5,27.6,70.7,28.1z M64.7,7.3l2.6,4.6c0.1,0.2,0.2,0.5,0.2,0.7l0.3,5.9c0,0.8,0.3,1.5,0.6,2.2l0.4,0.8L63,24.7
				l-0.7-1.2c-0.2-0.4-0.6-0.7-1-0.8l-3-0.8l0,0c-1.3-0.4-2.4-1.2-3-2.4c-0.7-1.2-0.8-2.5-0.5-3.8c0.3-0.9-0.3-1.8-1.2-2.1
				c-0.9-0.3-1.8,0.3-2.1,1.2c-0.6,2.1-0.3,4.4,0.8,6.3c0.8,1.4,2,2.6,3.5,3.3l-2.7,9.8l-12.8-3.6c0.5-1.8,3.5-12.6,4-14.4
				c0.8-3,2.8-5.5,5.5-7c2.7-1.5,5.9-1.9,8.9-1.1c0.9,0.3,1.8-0.3,2.1-1.2c0.6-2.1,2.4-3.5,4.5-3.6L64.5,6
				C64.4,6.4,64.4,6.9,64.7,7.3z"/>
			<ellipse cx="63.3" cy="15" rx="1.7" ry="1.7"/>
		</g>
	</g>
</g>
</svg>
