<?xml version="1.0" encoding="utf-8"?>
<!-- Generator: Adobe Illustrator 24.2.1, SVG Export Plug-In . SVG Version: 6.00 Build 0)  -->
<svg version="1.1" id="Ebene_1" xmlns="http://www.w3.org/2000/svg" xmlns:xlink="http://www.w3.org/1999/xlink" x="0px" y="0px"
	 viewBox="0 0 215 31.8" style="enable-background:new 0 0 215 31.8;" xml:space="preserve">
<style type="text/css">
	.st0{fill:#D63F37;}
</style>
<g id="Gruppe_29" transform="translate(0 -2945)">
	<path id="Icon_awesome-facebook-f" class="st0" d="M15.9,2962.9l0.9-5.8h-5.5v-3.7c0-1.6,0.8-3.1,3.2-3.1H17v-4.9
		c-1.5-0.2-3-0.4-4.5-0.4c-4.5,0-7.5,2.8-7.5,7.7v4.4H0v5.8h5.1v13.9h6.2v-13.9H15.9z"/>
	<path id="Icon_awesome-twitter" class="st0" d="M64.7,2954.4c0,0.3,0,0.6,0,0.8c0,8.6-6.6,18.5-18.5,18.5c-3.5,0-7-1-10-2.9
		c0.5,0.1,1,0.1,1.6,0.1c2.9,0,5.8-1,8.1-2.8c-2.8-0.1-5.2-1.9-6.1-4.5c0.4,0.1,0.8,0.1,1.2,0.1c0.6,0,1.2-0.1,1.7-0.2
		c-3-0.6-5.2-3.3-5.2-6.4v-0.1c0.9,0.5,1.9,0.8,2.9,0.8c-2.9-1.9-3.8-5.7-2-8.7c3.3,4.1,8.2,6.6,13.4,6.8c-0.1-0.5-0.2-1-0.2-1.5
		c0-3.6,2.9-6.5,6.5-6.5c1.8,0,3.5,0.7,4.8,2.1c1.5-0.3,2.9-0.8,4.1-1.6c-0.5,1.5-1.5,2.8-2.9,3.6c1.3-0.1,2.6-0.5,3.8-1
		C67.1,2952.3,66,2953.5,64.7,2954.4L64.7,2954.4z"/>
	<path id="Icon_awesome-google-play" class="st0" d="M158.1,2959.5l-13.7-13.7l17.4,10L158.1,2959.5z M140.9,2945
		c-0.8,0.4-1.4,1.3-1.3,2.2v27.4c0,0.9,0.5,1.8,1.3,2.2l15.9-15.9L140.9,2945z M167.3,2959l-3.7-2.1l-4.1,4l4.1,4l3.7-2.1
		c1-0.9,1.1-2.5,0.2-3.5C167.4,2959.2,167.4,2959.1,167.3,2959z M144.4,2976l17.4-10l-3.7-3.7L144.4,2976z"/>
	<path id="Icon_awesome-app-store-ios" class="st0" d="M212,2947h-21.9c-1.6,0-3,1.3-3,3v21.9c0,1.6,1.3,3,3,3H212c1.6,0,3-1.3,3-3
		V2950C215,2948.3,213.7,2947,212,2947z M195.1,2968.9c-0.4,0.6-1.1,0.8-1.7,0.4c-0.6-0.3-0.8-1.1-0.4-1.7l0.9-1.5
		c0.9-0.3,1.9,0,2.5,0.7L195.1,2968.9z M203.7,2965.5h-11.3c-0.7,0-1.3-0.5-1.3-1.2c0-0.7,0.5-1.3,1.2-1.3c0,0,0,0,0.1,0h3.2l4.1-7
		l-1.3-2.2c-0.3-0.6-0.1-1.4,0.5-1.7c0.6-0.3,1.3-0.1,1.7,0.4l0.6,1l0.6-1c0.3-0.6,1.1-0.8,1.7-0.5s0.8,1.1,0.5,1.7l-5.3,9.2h3.9
		c0.9,0.1,1.7,0.9,1.6,1.8C203.9,2965.1,203.8,2965.3,203.7,2965.5L203.7,2965.5z M209.8,2965.5H208l1.2,2.1
		c0.4,0.6,0.2,1.3-0.4,1.7c-0.6,0.4-1.3,0.2-1.7-0.4c0,0,0,0,0-0.1c-2-3.5-3.6-6.2-4.6-8c-0.8-1.3-0.7-3.1,0.4-4.2
		c0.8,1.4,2,3.5,3.7,6.3h3.2c0.7,0,1.3,0.5,1.3,1.2C211.1,2964.9,210.5,2965.5,209.8,2965.5C209.8,2965.5,209.8,2965.5,209.8,2965.5
		L209.8,2965.5z"/>
	<path id="Icon_awesome-youtube" class="st0" d="M119.7,2952.7c-0.4-1.5-1.5-2.6-3-3c-2.6-0.7-13.2-0.7-13.2-0.7s-10.6,0-13.2,0.7
		c-1.5,0.4-2.6,1.5-3,3c-0.5,2.7-0.7,5.5-0.7,8.2c0,2.8,0.2,5.5,0.7,8.2c0.4,1.5,1.5,2.6,3,3c2.6,0.7,13.2,0.7,13.2,0.7
		s10.6,0,13.2-0.7c1.5-0.4,2.6-1.5,3-3c0.5-2.7,0.7-5.5,0.7-8.2C120.5,2958.2,120.2,2955.4,119.7,2952.7z M100,2966v-10.1l8.9,5
		L100,2966L100,2966z"/>
</g>
</svg>
