<?xml version="1.0" encoding="utf-8"?>
<!-- Generator: Adobe Illustrator 24.2.1, SVG Export Plug-In . SVG Version: 6.00 Build 0)  -->
<svg version="1.1" id="Ebene_1" xmlns="http://www.w3.org/2000/svg" xmlns:xlink="http://www.w3.org/1999/xlink" x="0px" y="0px"
	 viewBox="0 0 384 385" style="enable-background:new 0 0 384 385;" xml:space="preserve">
<style type="text/css">
	.st0{fill:#FF766E;}
</style>
<g>
	<g>
		<path class="st0" d="M231.8,337.8c-5.8-2.4-12.3,0.4-14.7,6.1l-10,24.5c-2.4,5.8,0.4,12.3,6.1,14.7c5.8,2.4,12.3-0.4,14.7-6.1
			l10-24.5C240.3,346.8,237.6,340.2,231.8,337.8L231.8,337.8z M231.8,337.8"/>
		<path class="st0" d="M44.3,337.8c-5.8-2.4-12.3,0.4-14.7,6.1l-10,24.5c-2.4,5.8,0.4,12.3,6.1,14.7c5.8,2.4,12.3-0.4,14.7-6.1
			l10-24.5C52.8,346.8,50.1,340.2,44.3,337.8L44.3,337.8z M44.3,337.8"/>
		<path class="st0" d="M106.8,337.8c-5.8-2.4-12.3,0.4-14.7,6.1l-10,24.5c-2.4,5.8,0.4,12.3,6.1,14.7c5.7,2.4,12.3-0.4,14.7-6.1
			l10-24.5C115.3,346.8,112.6,340.2,106.8,337.8L106.8,337.8z M106.8,337.8"/>
		<path class="st0" d="M169.3,337.8c-5.8-2.4-12.3,0.4-14.7,6.1l-10,24.5c-2.4,5.8,0.4,12.3,6.1,14.7c5.8,2.4,12.3-0.4,14.7-6.1
			l10-24.5C177.8,346.8,175.1,340.2,169.3,337.8L169.3,337.8z M169.3,337.8"/>
	</g>
	<path class="st0" d="M372.8,105h-15c-6.2,0-11.2,5-11.2,11.2s5,11.2,11.2,11.2h15c6.2,0,11.2-5,11.2-11.2S379,105,372.8,105
		L372.8,105z M372.8,105"/>
	<path class="st0" d="M323.4,60.6c4.4,4.4,11.5,4.4,15.9,0L349.9,50c4.4-4.4,4.4-11.5,0-15.9c-4.4-4.4-11.5-4.4-15.9,0l-10.6,10.6
		C319,49,319,56.2,323.4,60.6L323.4,60.6z M323.4,60.6"/>
	<path class="st0" d="M267.8,37.5c6.2,0,11.2-5,11.2-11.2v-15C279,5,274,0,267.8,0c-6.2,0-11.2,5-11.2,11.2v15
		C256.5,32.5,261.5,37.5,267.8,37.5L267.8,37.5z M267.8,37.5"/>
	<path class="st0" d="M196.2,60.6c4.4,4.4,11.5,4.4,15.9,0c4.4-4.4,4.4-11.5,0-15.9l-10.6-10.6c-4.4-4.4-11.5-4.4-15.9,0
		c-4.4,4.4-4.4,11.5,0,15.9L196.2,60.6z M196.2,60.6"/>
	<path class="st0" d="M339.3,171.9c-4.4-4.4-11.5-4.4-15.9,0c-4.4,4.4-4.4,11.5,0,15.9l10.6,10.6c4.4,4.4,11.5,4.4,15.9,0
		c4.4-4.4,4.4-11.5,0-15.9L339.3,171.9z M339.3,171.9"/>
	<path class="st0" d="M297.5,172.6c20.2-10.7,34-31.9,34-56.3c0-35.2-28.6-63.8-63.8-63.8c-20.8,0-40,10.1-51.8,26.6
		c-15.9-9.8-34.7-15.4-54.7-15.4c-54.4,0-99.3,41.6-104.5,94.6C24.6,163.5,0,191.4,0,225c0,31.7,22,58.4,51.5,65.6l-4.5,10.9
		c-2.4,5.8,0.4,12.3,6.1,14.7c5.7,2.4,12.3-0.4,14.7-6.1l7.2-17.5h38.2l-3.7,9c-2.4,5.8,0.4,12.3,6.1,14.7
		c5.8,2.4,12.3-0.4,14.7-6.1l7.2-17.5h38.2l-3.7,9c-2.4,5.7,0.4,12.3,6.1,14.7c5.7,2.4,12.3-0.4,14.7-6.1l7.2-17.5h38.2l-3.7,9
		c-2.4,5.8,0.4,12.3,6.1,14.7c5.8,2.4,12.3-0.4,14.7-6.1l7.4-17.9c33.6-3.8,59.8-32.4,59.8-67.1C322.5,203.9,312.7,185,297.5,172.6
		L297.5,172.6z M267.8,75c22.7,0,41.2,18.5,41.2,41.2s-18.5,41.2-41.2,41.2c-0.7,0-1.4,0-2.1-0.1c-2.7-25.3-14.4-47.9-31.9-64.6
		C241.4,81.8,254,75,267.8,75L267.8,75z M255,270H67.5c-24.8,0-45-20.2-45-45c0-21.2,14.8-39,34.6-43.8c1.2,10.2,3.9,20.1,8,29.5
		c1.8,4.2,6,6.8,10.3,6.8c1.5,0,3-0.3,4.5-0.9c5.7-2.5,8.3-9.1,5.8-14.8c-4.6-10.4-6.9-21.6-6.9-33c0.6-45,37.3-82.5,82.4-82.5
		c42,0,76.8,31.6,81.9,72.3c-13.5,2.4-25.9,8.8-35.9,18.7c-4.4,4.4-4.4,11.5,0,15.9c2.2,2.2,5.1,3.3,8,3.3c2.9,0,5.8-1.1,8-3.3
		c8.5-8.5,19.8-13.2,31.8-13.2c24.8,0,45,20.2,45,45S279.8,270,255,270L255,270z M255,270"/>
</g>
</svg>
