<?xml version="1.0" encoding="utf-8"?>
<!-- Generator: Adobe Illustrator 24.2.1, SVG Export Plug-In . SVG Version: 6.00 Build 0)  -->
<svg version="1.1" id="Capa_1" xmlns="http://www.w3.org/2000/svg" xmlns:xlink="http://www.w3.org/1999/xlink" x="0px" y="0px"
	 viewBox="0 0 553.9 557.8" style="enable-background:new 0 0 553.9 557.8;" xml:space="preserve">
<style type="text/css">
	.st0{fill:#D94343;}
</style>
<g>
	<path class="st0" d="M385.6,19.3c0-8.2-6.7-14.9-14.9-14.9c-20.4,0-40.2,6-57.2,17.2c-11.4,7.6-21.1,17.1-28.7,28.4
		c-7.9,11.6-13.2,24.4-15.9,38.2l-0.7,3.8l-0.3,1.5l-1.5,0.1l-3.9,0.4c-31.4,3.1-60.4,13.4-86.3,30.6c-10.8,7.1-21,15.5-30.3,24.8
		l-1.2,1.2l-1.4,1.4l0,0c-5.8,5.8-22,22.1-70.9,70.9c-1.4,1.4-2.9,2.7-4.6,3.8c-4.8,3.2-10.4,4.9-16.2,4.9c-7.9,0-15.3-3.1-20.8-8.6
		c-5-5-12.9-5.8-18.8-1.9c-0.8,0.5-1.6,1.2-2.3,1.9c-2.8,2.8-4.4,6.6-4.4,10.6c0,4,1.6,7.7,4.4,10.6c18.6,18.6,47.7,22.7,70.7,9.9
		l9-5l3.4-1.9l-0.5,3.9L91,261.2c-1,8-1.5,16.2-1.5,24.3l0,45l0,0.8l-0.6,0.6l-16.6,16.6c-1.4,1.4-2.9,2.7-4.6,3.8
		c-4.8,3.2-10.4,4.9-16.2,4.9c-7.9,0-15.3-3.1-20.8-8.6c-5-5-12.9-5.8-18.8-1.9c-0.8,0.5-1.6,1.2-2.3,1.9c-5.8,5.8-5.8,15.3,0,21.1
		c18.4,18.4,46.2,22.7,69.3,10.7l7.7-4l2.9-1.5l0,3.3l0,77.9l0,0.8l-0.6,0.6l-16.6,16.6c-1.4,1.4-2.9,2.7-4.6,3.8
		c-4.8,3.2-10.4,4.9-16.2,4.9c-7.9,0-15.3-3.1-20.8-8.6c-2.8-2.8-6.6-4.4-10.6-4.4c-2.9,0-5.8,0.9-8.2,2.5c-0.8,0.6-1.6,1.2-2.3,1.9
		c-5.8,5.8-5.8,15.3,0,21.1c18.2,18.2,46.9,22.5,69.7,10.5l6.2-3.3l2.3-1.2l0.5,2.6l1.4,6.8c1.4,6.9,7.6,11.8,14.6,11.8l221.8,0
		c2.9,0,5.8-0.9,8.2-2.5c0.8-0.6,1.6-1.2,2.3-1.9c2.8-2.8,4.4-6.6,4.4-10.6l0-160.5l0-2l2,0l17.3,0l0.8,0l0.6,0.6l0.5,0.5l55,55.1
		c11.2,11.2,26.1,17.3,41.9,17.3c11.7,0,23-3.4,32.7-9.8c3.3-2.2,6.4-4.7,9.2-7.6l31.4-31.4c11.2-11.2,17.3-26.1,17.3-41.9
		c0-15.9-6.2-30.8-17.3-41.9l-55.3-55.3c-3.2-3.2-5.7-7.2-7.1-11.5l-24.7-74.3c-2.9-8.7-7.9-16.7-14.3-23.2l-45-45l-0.6-0.6l0-0.8
		L385.6,19.3z M520.2,327.7c0,7.9-3.1,15.3-8.6,20.8l-31.4,31.4c-1.4,1.4-2.9,2.7-4.6,3.7l0,0c-4.8,3.2-10.4,4.9-16.2,4.9
		c-7.9,0-15.3-3.1-20.8-8.6l-19.4-19.4l-1.4-1.4l1.4-1.4l70.2-70.2l1.4-1.4l1.4,1.4l19.4,19.4C517.1,312.4,520.2,319.8,520.2,327.7z
		 M355.7,37.8l0,44.2c0,4,1.6,7.7,4.4,10.6l50,50c3.2,3.2,5.7,7.2,7.1,11.5l24.7,74.3c2.9,8.7,7.9,16.7,14.3,23.2l12,12l1.4,1.4
		l-1.4,1.4L398,336.5l-1.4,1.4l-1.4-1.4L378,319.3c-2.8-2.8-6.6-4.4-10.6-4.4l-2,0l0,0c-2.5,0-7.2,0-16.2,0c-11.3,0-22.8,0-23,0
		c-19.7,0-38.3-7.7-52.2-21.6c-13.9-13.9-21.6-32.5-21.6-52.2c0-4-1.6-7.7-4.4-10.6c-2.8-2.8-6.6-4.4-10.6-4.4
		c-2.9,0-5.8,0.8-8.2,2.5c-0.8,0.6-1.6,1.2-2.3,1.9c-2.8,2.8-4.4,6.6-4.4,10.6c0,27.7,10.8,53.7,30.4,73.3
		c14.5,14.5,32.7,24.3,52.6,28.3l4.2,0.9l1.6,0.3l0,1.6l0,1.4l0,143.4l0,2l-2,0l-188,0l-2,0l0-2l0-204.9
		c0-43.4,16.9-84.2,47.6-114.9c7.8-7.8,16.3-14.8,25.4-20.8c26.5-17.5,57.4-26.8,89.5-26.8c3,0,5.8-0.8,8.2-2.5
		c0.8-0.6,1.6-1.2,2.3-1.9c2.8-2.8,4.4-6.6,4.4-10.6c0-24.8,12.4-47.8,33.1-61.6c5-3.3,10.4-6,16.1-8l7-2.5l2.7-0.9L355.7,37.8z"/>
	<path class="st0" d="M377.2,190.2c-3.2-3.2-7.4-5-12-5l0,0c-4.5,0-8.8,1.8-12,5c-3.2,3.2-5,7.4-5,12c0,4.5,1.8,8.8,5,12
		c3.2,3.2,7.5,5,12,5c3.3,0,6.6-1,9.3-2.8c0.9-0.6,1.8-1.4,2.6-2.2c3.2-3.2,5-7.5,5-12C382.2,197.6,380.4,193.4,377.2,190.2z"/>
</g>
</svg>
